<svg width="24" height="24" viewBox="0 0 24 24" fill="none" xmlns="http://www.w3.org/2000/svg">
<g clip-path="url(#clip0_4_106)">
<path d="M19.34 14.49L18.34 12.83C18.1052 12.3699 17.969 11.8658 17.94 11.35V8.82001C17.9389 7.70402 17.6218 6.61115 17.0254 5.66788C16.429 4.72462 15.5777 3.96953 14.57 3.49001C14.3128 3.03335 13.9377 2.65415 13.4838 2.39204C13.03 2.12993 12.5141 1.99454 11.99 2.00001C11.462 1.99942 10.9434 2.14004 10.488 2.4073C10.0326 2.67456 9.65696 3.05873 9.39999 3.52001C8.41133 4.00897 7.57869 4.76406 6.99571 5.70036C6.41273 6.63667 6.10253 7.71705 6.09999 8.82001V11.35C6.07226 11.8628 5.93591 12.3639 5.69999 12.82L4.68999 14.49C4.48875 14.7963 4.36236 15.1456 4.32105 15.5098C4.27973 15.874 4.32465 16.2427 4.45216 16.5863C4.57967 16.9299 4.78621 17.2387 5.05508 17.4878C5.32396 17.7368 5.64764 17.9191 5.99999 18.02C7.9395 18.6739 9.97321 19.005 12.02 19C14.0658 19.0034 16.0988 18.6759 18.04 18.03C18.3839 17.9157 18.6975 17.7254 18.9577 17.4732C19.2179 17.221 19.4179 16.9133 19.5428 16.5732C19.6677 16.233 19.7143 15.8691 19.6792 15.5084C19.6441 15.1478 19.5282 14.7997 19.34 14.49Z" fill="#353535"/>
<path d="M14.8299 20.01C14.6196 20.5922 14.2352 21.0954 13.7289 21.4515C13.2226 21.8075 12.6189 21.999 11.9999 22C11.6051 22.0003 11.2142 21.9217 10.8501 21.7689C10.4861 21.616 10.1562 21.392 9.87993 21.11C9.56078 20.8016 9.32067 20.4209 9.17993 20C9.30993 20.02 9.43993 20.03 9.57993 20.05C9.80993 20.08 10.0499 20.11 10.2899 20.13C10.8599 20.18 11.4399 20.21 12.0199 20.21C12.5999 20.21 13.1599 20.18 13.7199 20.13C13.9299 20.11 14.1399 20.1 14.3399 20.07L14.8299 20.01Z" fill="#353535"/>
</g>
<defs>
<clipPath id="clip0_4_106">
<rect width="24" height="24" fill="white"/>
</clipPath>
</defs>
</svg>
