<svg width="20" height="20" viewBox="0 0 20 20" fill="none" xmlns="http://www.w3.org/2000/svg">
<g opacity="0.5" clip-path="url(#clip0_140_309)">
<path d="M12.1082 7.89156L7.89156 12.1082C7.61255 11.8318 7.39089 11.503 7.23931 11.1407C7.08774 10.7784 7.00923 10.3897 7.00831 9.99699C7.00738 9.60425 7.08406 9.2152 7.23392 8.85218C7.38379 8.48916 7.6039 8.15932 7.88161 7.88161C8.15932 7.6039 8.48916 7.38379 8.85218 7.23392C9.2152 7.08406 9.60425 7.00738 9.99699 7.00831C10.3897 7.00923 10.7784 7.08774 11.1407 7.23931C11.503 7.39089 11.8318 7.61255 12.1082 7.89156V7.89156Z" stroke="#115082" stroke-width="1.5" stroke-linecap="round" stroke-linejoin="round"/>
<path d="M14.8457 4.8084C13.4602 3.72631 11.7577 3.12905 9.99983 3.1084C7.05816 3.1084 4.3165 4.84173 2.40816 7.84173C2.03933 8.5028 1.8457 9.24723 1.8457 10.0042C1.8457 10.7612 2.03933 11.5057 2.40816 12.1667C3.02805 13.1527 3.78889 14.0427 4.6665 14.8084" stroke="#115082" stroke-width="1.5" stroke-linecap="round" stroke-linejoin="round"/>
<path d="M7.0166 16.2751C7.95989 16.6778 8.97429 16.8875 9.99993 16.8917C12.9416 16.8917 15.6833 15.1584 17.5916 12.1584C17.9604 11.4973 18.1541 10.7529 18.1541 9.9959C18.1541 9.23889 17.9604 8.49447 17.5916 7.8334C17.3202 7.40892 17.0253 6.99995 16.7083 6.6084" stroke="#115082" stroke-width="1.5" stroke-linecap="round" stroke-linejoin="round"/>
<path d="M12.9252 10.5833C12.8123 11.1646 12.5283 11.6989 12.1095 12.1176C11.6908 12.5363 11.1565 12.8204 10.5752 12.9333" stroke="#115082" stroke-width="1.5" stroke-linecap="round" stroke-linejoin="round"/>
<path d="M7.8915 12.1084L1.6665 18.3334" stroke="#115082" stroke-width="1.5" stroke-linecap="round" stroke-linejoin="round"/>
<path d="M18.3334 1.66675L12.1084 7.89175" stroke="#115082" stroke-width="1.5" stroke-linecap="round" stroke-linejoin="round"/>
</g>
<defs>
<clipPath id="clip0_140_309">
<rect width="20" height="20" fill="white"/>
</clipPath>
</defs>
</svg>
