<svg width="20" height="20" viewBox="0 0 20 20" fill="none" xmlns="http://www.w3.org/2000/svg">
<g clip-path="url(#clip0_18_162)">
<path d="M7.62496 6.24165C7.46014 6.24165 7.29903 6.29053 7.16198 6.3821C7.02494 6.47366 6.91813 6.60381 6.85506 6.75608C6.79199 6.90836 6.77548 7.07591 6.80764 7.23756C6.83979 7.39921 6.91916 7.5477 7.0357 7.66424C7.15225 7.78079 7.30073 7.86015 7.46238 7.89231C7.62404 7.92446 7.79159 7.90796 7.94386 7.84489C8.09613 7.78181 8.22628 7.675 8.31785 7.53796C8.40942 7.40092 8.45829 7.2398 8.45829 7.07499C8.45829 6.85397 8.3705 6.64201 8.21422 6.48573C8.05793 6.32945 7.84597 6.24165 7.62496 6.24165V6.24165Z" fill="#0F3451"/>
<path d="M17.8833 4.20001C17.1833 2.57501 15.6416 1.66667 13.4916 1.66667H6.50829C5.87242 1.66645 5.24273 1.79154 4.65521 2.03478C4.06769 2.27801 3.53386 2.63464 3.08423 3.08428C2.6346 3.53391 2.27797 4.06774 2.03473 4.65525C1.79149 5.24277 1.66641 5.87246 1.66663 6.50834V13.4917C1.66663 15.6417 2.57496 17.1833 4.19996 17.8833C4.2769 17.9149 4.36143 17.923 4.44296 17.9067C4.52449 17.8904 4.59939 17.8504 4.65829 17.7917L17.7916 4.65834C17.853 4.6012 17.8949 4.5262 17.9114 4.44395C17.9278 4.36171 17.918 4.27637 17.8833 4.20001ZM8.77496 10.2C8.45978 10.5038 8.03772 10.6715 7.59996 10.6667C7.16301 10.6672 6.74249 10.5002 6.42496 10.2C5.89133 9.78058 5.47834 9.22727 5.22803 8.59637C4.97772 7.96548 4.89903 7.27953 4.99996 6.60834C5.1384 6.0281 5.47251 5.51327 5.94607 5.15052C6.41962 4.78776 7.00369 4.59924 7.59996 4.61667C8.1974 4.5995 8.78245 4.78915 9.25619 5.15357C9.72994 5.51799 10.0633 6.03481 10.2 6.61667C10.2963 7.28639 10.2154 7.96966 9.96533 8.59838C9.71531 9.2271 9.30488 9.77931 8.77496 10.2Z" fill="#0F3451"/>
<path d="M16.225 17.1083C16.2688 17.1487 16.3026 17.1987 16.3235 17.2545C16.3444 17.3102 16.3519 17.3701 16.3454 17.4293C16.3389 17.4885 16.3186 17.5454 16.2861 17.5953C16.2536 17.6452 16.2099 17.6868 16.1583 17.7167C15.3369 18.1471 14.4187 18.3594 13.4917 18.3333H6.50835C6.45626 18.3331 6.40545 18.3172 6.36255 18.2876C6.31964 18.2581 6.28664 18.2163 6.26784 18.1677C6.24904 18.1191 6.24531 18.066 6.25714 18.0153C6.26898 17.9646 6.29582 17.9186 6.33418 17.8833L11.3667 12.85C11.4054 12.8109 11.4515 12.7799 11.5023 12.7588C11.553 12.7376 11.6075 12.7267 11.6625 12.7267C11.7175 12.7267 11.772 12.7376 11.8228 12.7588C11.8735 12.7799 11.9196 12.8109 11.9583 12.85L16.225 17.1083Z" fill="#0F3451"/>
<path d="M18.3333 6.50832V13.4917C18.3605 14.4188 18.1481 15.3373 17.7166 16.1583C17.686 16.209 17.6442 16.252 17.5943 16.2838C17.5444 16.3157 17.4878 16.3356 17.429 16.3421C17.3701 16.3485 17.3106 16.3413 17.2549 16.321C17.1993 16.3007 17.1491 16.2678 17.1083 16.225L12.8416 11.9583C12.8026 11.9196 12.7716 11.8735 12.7504 11.8227C12.7293 11.772 12.7184 11.7175 12.7184 11.6625C12.7184 11.6075 12.7293 11.553 12.7504 11.5022C12.7716 11.4515 12.8026 11.4054 12.8416 11.3667L17.875 6.33415C17.9107 6.29538 17.9573 6.26819 18.0086 6.25609C18.0599 6.244 18.1137 6.24755 18.163 6.26628C18.2123 6.28502 18.2549 6.31808 18.2852 6.36122C18.3156 6.40435 18.3323 6.45559 18.3333 6.50832Z" fill="#0F3451"/>
</g>
<defs>
<clipPath id="clip0_18_162">
<rect width="20" height="20" fill="white"/>
</clipPath>
</defs>
</svg>
