<svg width="130" height="27" viewBox="0 0 130 27" fill="none" xmlns="http://www.w3.org/2000/svg">
<g clip-path="url(#clip0_140_281)">
<path d="M15.2971 23.9609C15.5053 24.3702 15.524 24.797 15.3737 25.2238C15.0968 26.0046 14.5947 26.5496 13.747 26.7114C13.6814 26.7221 13.615 26.7276 13.5484 26.7282C13.4823 26.731 13.4162 26.7282 13.3499 26.7282C12.6599 26.7769 12.191 26.4051 11.7848 25.9122C11.5121 25.5815 11.3289 25.1974 11.1343 24.8205C9.37259 21.4099 7.6108 17.9995 5.84892 14.5892C4.34708 11.6814 2.84563 8.77341 1.34455 5.8652C0.981151 5.16148 0.642711 4.44331 0.250373 3.75575C-0.222532 2.92733 0.0234245 2.02182 0.541435 1.39009C0.881859 0.975456 1.31618 0.817311 1.83249 0.802574C2.17266 0.796024 2.51273 0.819831 2.84865 0.873711C2.9939 0.895534 3.11107 0.975456 3.22397 1.0619C3.50766 1.27758 3.71588 1.55674 3.89688 1.85744C4.32553 2.56909 4.67758 3.32184 5.05999 4.05872C6.41223 6.67236 7.76181 9.28705 9.10876 11.9028C10.8483 15.2714 12.595 18.6367 14.3059 22.0207C14.6344 22.6683 14.9677 23.3136 15.2971 23.9609Z" fill="#115082"/>
<path d="M24.0593 2.6215C24.0689 2.95905 23.9668 3.31417 23.8661 3.66815C23.5719 4.70488 23.133 5.68776 22.7362 6.68623C21.9838 8.57905 21.2285 10.4707 20.4701 12.3613C19.9977 13.5335 19.5129 14.7009 19.0253 15.8669C18.7112 16.6179 18.1175 16.9988 17.3254 17.0972C16.5717 17.191 15.5504 16.695 15.2576 15.7084C15.0778 15.1031 15.1336 14.5243 15.3694 13.9396C16.0604 12.2256 16.7331 10.5038 17.4119 8.78547C18.2654 6.62813 19.1189 4.47087 19.9722 2.31371C20.0979 1.99629 20.2508 1.69445 20.4684 1.42861C20.7478 1.08851 21.0808 0.854698 21.5413 0.815304C22.0088 0.775059 22.4649 0.786963 22.9115 0.943407C23.6388 1.20131 24.0689 1.81462 24.0593 2.6215Z" fill="#115082"/>
<path d="M42.902 12.1554C43.1896 12.5086 43.3908 12.9104 43.3426 13.3741C43.2711 14.0605 43.0001 14.6438 42.3497 14.9839C41.9153 15.2106 41.4433 15.2942 40.9636 15.354C40.3048 15.4359 39.6433 15.3951 39.1965 15.4017C38.3222 15.4079 37.6609 15.4232 37.0019 15.3535C36.5213 15.3025 36.0484 15.2214 35.6118 14.9964C35.4445 14.9087 35.2903 14.7982 35.1534 14.6682C34.9699 14.5031 34.8468 14.2816 34.8036 14.0387C34.7074 13.5113 34.6856 12.9901 34.8705 12.476C35.0294 12.0344 35.3244 11.7266 35.7568 11.5407C36.2595 11.3245 36.7891 11.2479 37.3287 11.2216C38.1131 11.1833 38.8949 11.2737 39.6785 11.2783C40.1412 11.2814 40.6033 11.2652 41.0657 11.2519C41.8291 11.2312 42.4297 11.5758 42.902 12.1554Z" fill="#115082"/>
<path d="M45.3603 24.5029C45.3016 25.3532 44.846 25.8976 44.05 26.1697C43.7178 26.2831 43.3737 26.3372 43.0228 26.3607C42.475 26.3973 41.9277 26.372 41.3799 26.3692C40.4543 26.3647 39.5283 26.3879 38.6024 26.3908C38.1485 26.3922 37.6946 26.3624 37.2421 26.3678C36.1074 26.3786 34.9743 26.3613 33.8407 26.3735C32.725 26.3851 31.6109 26.3287 30.4958 26.3349C30.0966 26.3375 29.7366 26.2216 29.4308 25.9464C29.1551 25.6995 28.8844 25.4521 28.7199 25.1114C28.6458 24.958 28.6093 24.7892 28.6132 24.6188C28.6416 22.4649 28.6019 20.311 28.6036 18.159C28.6049 16.5626 28.6049 14.9661 28.6036 13.3693H28.6109C28.6109 10.7242 28.6053 8.07938 28.6135 5.43371C28.6169 4.30997 28.6302 3.18652 28.6135 2.0625C28.6087 1.74706 28.748 1.47838 28.94 1.23663C29.1718 0.944432 29.4592 0.713733 29.7741 0.519311C29.9797 0.392625 30.2194 0.359466 30.4549 0.349263C31.6731 0.29088 32.8915 0.271041 34.1113 0.301366C34.8671 0.320071 35.6242 0.273025 36.3808 0.29343C37.808 0.332258 39.235 0.260271 40.6619 0.29343C41.4077 0.311285 42.157 0.277559 42.8994 0.334809C43.6721 0.394609 44.2611 0.829366 44.5762 1.52288C44.8991 2.23141 44.7845 2.94817 44.3317 3.5918C44.1487 3.85141 43.8934 4.02599 43.5941 4.14248C43.0673 4.3471 42.5187 4.43099 41.9598 4.45423C41.4208 4.47719 40.8818 4.45877 40.3428 4.43382C39.6821 4.40322 39.0214 4.3933 38.3595 4.44658C37.8319 4.48909 37.3011 4.47067 36.7709 4.44289C36.2407 4.41512 35.7156 4.40293 35.1854 4.44686C34.6552 4.49079 34.1272 4.46812 33.5967 4.44119C33.3414 4.42844 33.0861 4.42957 32.8308 4.41285C32.6869 4.40265 32.6535 4.46075 32.6577 4.59169C32.6662 4.86546 32.6631 5.13953 32.6634 5.41359C32.6666 8.28551 32.6694 11.1574 32.6716 14.0294C32.6716 16.6746 32.6679 19.3198 32.6606 21.965C32.6606 22.3314 32.6214 22.2793 32.9763 22.2796C35.1976 22.2813 37.4189 22.2813 39.6404 22.2796C40.5765 22.2796 41.5127 22.2713 42.4489 22.2827C43.0253 22.2898 43.5944 22.351 44.1487 22.5426C45.1411 22.8832 45.4097 23.7848 45.3603 24.5029Z" fill="#115082"/>
<path d="M69.0486 22.9101C67.9138 20.789 66.7952 18.6589 65.6701 16.5333C65.2647 15.7658 64.8608 15.0006 64.4415 14.207C64.5345 14.1591 64.6009 14.1243 64.6684 14.0905C65.2609 13.7942 65.8063 13.4122 66.2872 12.9569C67.2565 12.0383 67.945 10.9466 68.2278 9.63528C68.4497 8.60507 68.4783 7.55558 68.3739 6.50638C68.2894 5.66351 68.0817 4.85436 67.6903 4.09765C66.4704 1.73228 63.806 0.257955 61.0946 0.369054C60.7351 0.383791 60.3768 0.375289 60.018 0.371038C58.4875 0.353466 56.9576 0.308687 55.4279 0.259372C55.0118 0.246052 54.5953 0.234999 54.1814 0.272126C53.5757 0.326542 52.9899 0.442175 52.4844 0.827334C51.9667 1.22128 51.6946 1.72802 51.6819 2.37449C51.6776 2.58223 51.6861 2.78998 51.6861 2.998C51.6844 6.89891 51.6828 10.7997 51.6813 14.7005C51.6813 17.9591 51.6848 21.2177 51.6918 24.4763C51.6918 25.2982 52.3199 26.1201 53.1204 26.2989C53.9766 26.4891 54.7074 26.2397 55.3028 25.6023C55.5272 25.3622 55.6867 25.0709 55.702 24.7438C55.7275 24.1883 55.797 23.6359 55.7956 23.0782C55.7882 20.4807 55.7925 17.8832 55.7925 15.2857C55.7925 15.229 55.7908 15.1723 55.7925 15.1157C55.7987 14.9226 55.799 14.9238 56.0069 14.934C56.1011 14.9388 56.1959 14.9388 56.2906 14.9388C57.5479 14.9388 58.8055 14.9445 60.0636 14.934C60.2739 14.932 60.3811 14.9986 60.4727 15.1854C60.7051 15.6595 60.9626 16.1206 61.2103 16.5883C62.3343 18.7152 63.4581 20.842 64.5819 22.9688C64.9303 23.6277 65.2684 24.2923 65.6384 24.9388C66.0213 25.6076 66.8332 25.9713 67.5674 25.874C68.9515 25.6895 69.7328 24.1914 69.0486 22.9101ZM62.6035 10.7777C62.0361 11.0529 61.4319 11.1286 60.8143 11.1379C60.4841 11.143 60.1527 11.1096 59.8228 11.1223C58.633 11.1674 57.443 11.1586 56.2529 11.1583C56.111 11.1583 55.9335 11.2167 55.839 11.1334C55.7284 11.0359 55.7947 10.848 55.7942 10.7001C55.7905 9.72795 55.7925 8.75556 55.7925 7.78316V4.75148C55.7925 4.68545 55.7925 4.61941 55.7925 4.5531C55.7925 4.45957 55.8342 4.41536 55.9303 4.42074C55.9962 4.42471 56.0625 4.42074 56.1289 4.42074C57.9054 4.42074 59.6821 4.42839 61.4585 4.41734C62.3947 4.41139 63.1459 4.78153 63.728 5.48893C65.0074 7.0409 64.6265 9.79314 62.6035 10.7777Z" fill="#115082"/>
<path d="M96.7906 11.4377C97.1477 11.4357 97.4343 11.572 97.6683 11.8234C98.0025 12.1825 98.1724 12.6113 98.1923 13.1039C98.2101 13.5514 98.1968 13.9898 97.9832 14.3994C97.8229 14.7066 97.6116 14.9662 97.3174 15.1541C97.1148 15.2828 96.8964 15.3598 96.6501 15.3525C94.7798 15.306 92.9092 15.37 91.0388 15.346C90.4343 15.3383 89.83 15.304 89.2258 15.3063C88.7826 15.308 88.4677 15.1045 88.2277 14.7624C87.8414 14.212 87.7276 13.5922 87.7926 12.9321C87.8476 12.3738 88.1163 11.9359 88.548 11.5904C88.7214 11.4516 88.9307 11.4419 89.139 11.4402C89.9231 11.4342 90.707 11.43 91.4907 11.4278C91.9917 11.4261 92.4924 11.4278 92.9943 11.4278V11.4397C94.2589 11.4405 95.5248 11.4445 96.7906 11.4377Z" fill="#115082"/>
<path d="M97.9232 16.6184C98.0205 16.7146 98.0966 16.8301 98.1465 16.9574C98.1964 17.0848 98.2191 17.2212 98.2131 17.3578C98.197 18.0096 98.208 18.6615 98.208 19.3133C98.208 19.9462 98.2143 20.5791 98.2052 21.2122C98.2008 21.5044 98.1803 21.7961 98.1439 22.086C98.1086 22.3514 97.9823 22.5964 97.7865 22.7792C97.4336 23.1193 97.0826 23.4651 96.7031 23.7746C95.7445 24.5559 94.6585 25.1273 93.5286 25.6168C92.2622 26.1671 90.9208 26.5258 89.5485 26.681C87.1891 26.9468 84.8844 26.7068 82.6907 25.761C80.226 24.6982 78.2314 23.0544 76.7617 20.7984C75.6135 19.0472 74.8836 17.0558 74.6283 14.978C74.3674 12.9003 74.617 10.8792 75.3211 8.90497C76.3549 6.00281 78.194 3.74911 80.773 2.09255C82.5157 0.971649 84.4249 0.293439 86.489 0.0760603C87.9298 -0.0747265 89.3854 0.000435576 90.803 0.298824C92.0949 0.567784 93.3337 0.990354 94.4878 1.63654C95.0954 1.97663 95.6248 2.41111 96.0228 2.99494C96.5678 3.79445 96.3348 4.90402 95.8693 5.39347C95.2614 6.03427 94.0685 6.32647 93.1743 5.72252C91.8035 4.79774 90.2668 4.35164 88.624 4.24083C87.5856 4.17197 86.5427 4.26268 85.5318 4.50979C84.2498 4.81928 83.1171 5.42607 82.1097 6.26412C80.4433 7.65001 79.3214 9.39074 78.8731 11.5146C78.2646 14.4055 78.9582 17.0015 80.8306 19.2706C82.2819 21.0277 84.1341 22.1566 86.3874 22.5718C88.3253 22.9289 90.1848 22.661 91.9476 21.7677C92.692 21.3908 93.3805 20.9294 94.0444 20.4269C94.2188 20.2951 94.2892 20.1554 94.2878 19.9326C94.2818 19.0166 94.3034 18.1006 94.3025 17.1835C94.3025 16.9055 94.4069 16.6909 94.6038 16.5104C94.8612 16.2695 95.1858 16.1124 95.5346 16.06C96.0208 15.9895 96.5139 15.9645 96.9978 16.0904C97.3499 16.1759 97.6706 16.3589 97.9232 16.6184Z" fill="#115082"/>
<path d="M129.998 13.4044C129.889 6.30545 124.13 0.263067 116.555 0.223389C108.877 0.273836 103.025 6.5234 103.137 13.829C103.247 20.9341 109.027 27.0077 116.58 27C124.22 26.993 130.112 20.7491 129.998 13.4044ZM123.332 19.6285C121.638 21.5302 119.484 22.5394 116.933 22.67C113.134 22.8648 109.712 20.6845 108.182 17.3827C107.766 16.4916 107.499 15.5384 107.392 14.561C107.355 14.2209 107.351 13.8831 107.339 13.6362C107.329 12.5919 107.453 11.6523 107.777 10.7613C108.492 8.80374 109.665 7.18148 111.409 6.0022C112.365 5.35601 113.399 4.88441 114.527 4.63019C115.431 4.42295 116.362 4.36228 117.285 4.45051C120.394 4.75348 122.719 6.31197 124.385 8.9001C125.009 9.87051 125.381 10.9537 125.548 12.0964C125.967 14.9439 125.246 17.4779 123.331 19.6285H123.332Z" fill="#115082"/>
<path d="M129.998 13.4044C129.889 6.30545 124.13 0.263067 116.555 0.223389C108.877 0.273836 103.025 6.5234 103.137 13.829C103.247 20.9341 109.027 27.0077 116.58 27C124.22 26.993 130.112 20.7491 129.998 13.4044ZM123.332 19.6285C121.638 21.5302 119.484 22.5394 116.933 22.67C113.134 22.8648 109.712 20.6845 108.182 17.3827C107.766 16.4916 107.499 15.5384 107.392 14.561C107.355 14.2209 107.351 13.8831 107.339 13.6362C107.329 12.5919 107.453 11.6523 107.777 10.7613C108.492 8.80374 109.665 7.18148 111.409 6.0022C112.365 5.35601 113.399 4.88441 114.527 4.63019C115.431 4.42295 116.362 4.36228 117.285 4.45051C120.394 4.75348 122.719 6.31197 124.385 8.9001C125.009 9.87051 125.381 10.9537 125.548 12.0964C125.967 14.9439 125.246 17.4779 123.331 19.6285H123.332Z" fill="#115082"/>
<path d="M69.0486 22.9101C67.9138 20.789 66.7952 18.6589 65.6701 16.5333C65.2647 15.7658 64.8608 15.0006 64.4415 14.207C64.5345 14.1591 64.6009 14.1243 64.6684 14.0905C65.2609 13.7942 65.8063 13.4122 66.2872 12.9569C67.2565 12.0383 67.945 10.9466 68.2278 9.63528C68.4497 8.60507 68.4783 7.55558 68.3739 6.50638C68.2894 5.66351 68.0817 4.85436 67.6903 4.09765C66.4704 1.73228 63.806 0.257955 61.0946 0.369054C60.7351 0.383791 60.3768 0.375289 60.018 0.371038C58.4875 0.353466 56.9576 0.308687 55.4279 0.259372C55.0118 0.246052 54.5953 0.234999 54.1814 0.272126C53.5757 0.326542 52.9899 0.442175 52.4844 0.827334C51.9667 1.22128 51.6946 1.72802 51.6819 2.37449C51.6776 2.58223 51.6861 2.78998 51.6861 2.998C51.6844 6.89891 51.6828 10.7997 51.6813 14.7005C51.6813 17.9591 51.6848 21.2177 51.6918 24.4763C51.6918 25.2982 52.3199 26.1201 53.1204 26.2989C53.9766 26.4891 54.7074 26.2397 55.3028 25.6023C55.5272 25.3622 55.6867 25.0709 55.702 24.7438C55.7275 24.1883 55.797 23.6359 55.7956 23.0782C55.7882 20.4807 55.7925 17.8832 55.7925 15.2857C55.7925 15.229 55.7908 15.1723 55.7925 15.1157C55.7987 14.9226 55.799 14.9238 56.0069 14.934C56.1011 14.9388 56.1959 14.9388 56.2906 14.9388C57.5479 14.9388 58.8055 14.9445 60.0636 14.934C60.2739 14.932 60.3811 14.9986 60.4727 15.1854C60.7051 15.6595 60.9626 16.1206 61.2103 16.5883C62.3343 18.7152 63.4581 20.842 64.5819 22.9688C64.9303 23.6277 65.2684 24.2923 65.6384 24.9388C66.0213 25.6076 66.8332 25.9713 67.5674 25.874C68.9515 25.6895 69.7328 24.1914 69.0486 22.9101ZM62.6035 10.7777C62.0361 11.0529 61.4319 11.1286 60.8143 11.1379C60.4841 11.143 60.1527 11.1096 59.8228 11.1223C58.633 11.1674 57.443 11.1586 56.2529 11.1583C56.111 11.1583 55.9335 11.2167 55.839 11.1334C55.7284 11.0359 55.7947 10.848 55.7942 10.7001C55.7905 9.72795 55.7925 8.75556 55.7925 7.78316V4.75148C55.7925 4.68545 55.7925 4.61941 55.7925 4.5531C55.7925 4.45957 55.8342 4.41536 55.9303 4.42074C55.9962 4.42471 56.0625 4.42074 56.1289 4.42074C57.9054 4.42074 59.6821 4.42839 61.4585 4.41734C62.3947 4.41139 63.1459 4.78153 63.728 5.48893C65.0074 7.0409 64.6265 9.79314 62.6035 10.7777Z" fill="#115082"/>
<path d="M98.2131 17.3578C98.197 18.0096 98.208 18.6615 98.208 19.3133C98.208 19.9462 98.2143 20.5791 98.2052 21.2122C98.2008 21.5044 98.1803 21.7961 98.1439 22.086C98.1086 22.3514 97.9823 22.5964 97.7865 22.7792C97.4336 23.1193 97.0827 23.4651 96.7031 23.7746C95.7445 24.5559 94.6586 25.1273 93.5286 25.6168C92.2622 26.1671 90.9208 26.5258 89.5485 26.681C87.1891 26.9468 84.8844 26.7068 82.6907 25.761C80.226 24.6982 78.2314 23.0544 76.7617 20.7984C75.6135 19.0472 74.8836 17.0558 74.6283 14.978C74.3674 12.9003 74.617 10.8792 75.3211 8.90497C76.3549 6.00281 78.194 3.74911 80.773 2.09255C82.5157 0.971649 84.4249 0.293439 86.489 0.0760603C87.9298 -0.0747265 89.3854 0.000435576 90.803 0.298824C92.0949 0.567784 93.3337 0.990354 94.4878 1.63654C95.0954 1.97663 95.6248 2.41111 96.0228 2.99494C96.5678 3.79445 96.3349 4.90402 95.8693 5.39347C95.2614 6.03427 94.0685 6.32647 93.1743 5.72252C91.8035 4.79774 90.2668 4.35164 88.624 4.24083C87.5856 4.17197 86.5427 4.26268 85.5318 4.50979C84.2498 4.81928 83.1171 5.42607 82.1097 6.26412C80.4433 7.65001 79.3214 9.39074 78.8731 11.5146C78.2646 14.4055 78.9582 17.0015 80.8306 19.2706C82.2819 21.0277 84.1341 22.1566 86.3874 22.5718C88.3253 22.9289 90.1848 22.661 91.9477 21.7677C92.6921 21.3908 93.3806 20.9294 94.0444 20.4269C94.2188 20.2951 94.2892 20.1554 94.2878 19.9326C94.2818 19.0166 94.3034 18.1006 94.3025 17.1835C94.3025 16.9055 94.4069 16.6909 94.6038 16.5104C94.8612 16.2695 95.1858 16.1124 95.5346 16.06C96.0208 15.9895 96.5139 15.9645 96.9978 16.0904C97.3488 16.1763 97.6685 16.3592 97.9204 16.6181C98.0182 16.7141 98.0949 16.8295 98.1453 16.9569C98.1957 17.0843 98.2188 17.2209 98.2131 17.3578Z" fill="#115082"/>
<path d="M45.3603 24.5029C45.3016 25.3532 44.846 25.8976 44.05 26.1697C43.7178 26.2831 43.3737 26.3372 43.0228 26.3607C42.475 26.3973 41.9277 26.372 41.3799 26.3692C40.4543 26.3647 39.5283 26.3879 38.6024 26.3908C38.1485 26.3922 37.6946 26.3624 37.2421 26.3678C36.1074 26.3786 34.9743 26.3613 33.8407 26.3735C32.725 26.3851 31.6109 26.3287 30.4958 26.3349C30.0966 26.3375 29.7366 26.2216 29.4308 25.9464C29.1551 25.6995 28.8844 25.4521 28.7199 25.1114C28.6458 24.958 28.6093 24.7892 28.6132 24.6188C28.6416 22.4649 28.6019 20.311 28.6036 18.159C28.6049 16.5626 28.6049 14.9661 28.6036 13.3693H28.6109C28.6109 10.7242 28.6053 8.07938 28.6135 5.43371C28.6169 4.30997 28.6302 3.18652 28.6135 2.0625C28.6087 1.74706 28.748 1.47838 28.94 1.23663C29.1718 0.944432 29.4592 0.713733 29.7741 0.519311C29.9797 0.392625 30.2194 0.359466 30.4549 0.349263C31.6731 0.29088 32.8915 0.271041 34.1113 0.301366C34.8671 0.320071 35.6242 0.273025 36.3808 0.29343C37.808 0.332258 39.235 0.260271 40.6619 0.29343C41.4077 0.311285 42.157 0.277559 42.8994 0.334809C43.6721 0.394609 44.2611 0.829366 44.5762 1.52288C44.8991 2.23141 44.7845 2.94817 44.3317 3.5918C44.1487 3.85141 43.8934 4.02599 43.5941 4.14248C43.0673 4.3471 42.5187 4.43099 41.9598 4.45423C41.4208 4.47719 40.8818 4.45877 40.3428 4.43382C39.6821 4.40322 39.0214 4.3933 38.3595 4.44658C37.8319 4.48909 37.3011 4.47067 36.7709 4.44289C36.2407 4.41512 35.7156 4.40293 35.1854 4.44686C34.6552 4.49079 34.1272 4.46812 33.5967 4.44119C33.3414 4.42844 33.0861 4.42957 32.8308 4.41285C32.6869 4.40265 32.6535 4.46075 32.6577 4.59169C32.6662 4.86546 32.6631 5.13953 32.6634 5.41359C32.6666 8.28551 32.6694 11.1574 32.6716 14.0294C32.6716 16.6746 32.6679 19.3198 32.6606 21.965C32.6606 22.3314 32.6214 22.2793 32.9763 22.2796C35.1976 22.2813 37.4189 22.2813 39.6404 22.2796C40.5765 22.2796 41.5127 22.2713 42.4489 22.2827C43.0253 22.2898 43.5944 22.351 44.1487 22.5426C45.1411 22.8832 45.4097 23.7848 45.3603 24.5029Z" fill="#115082"/>
<path d="M15.3737 25.2238C15.0968 26.0046 14.5947 26.5496 13.747 26.7114C13.6814 26.7221 13.615 26.7276 13.5484 26.7282C13.4823 26.731 13.4162 26.7282 13.3499 26.7282C12.6599 26.7769 12.191 26.4051 11.7848 25.9122C11.5121 25.5815 11.3289 25.1974 11.1343 24.8205C9.37258 21.4099 7.6108 17.9995 5.84892 14.5892C4.34708 11.6814 2.84563 8.77341 1.34455 5.8652C0.98115 5.16148 0.642711 4.44331 0.250373 3.75575C-0.222532 2.92733 0.0234245 2.02182 0.541435 1.39009C0.881859 0.975456 1.31618 0.817311 1.83249 0.802574C2.17266 0.796024 2.51273 0.819831 2.84865 0.873711C2.9939 0.895534 3.11107 0.975456 3.22397 1.0619C3.50766 1.27758 3.71588 1.55674 3.89688 1.85744C4.32553 2.56909 4.67758 3.32184 5.05999 4.05872C6.41223 6.67236 7.76181 9.28705 9.10876 11.9028C10.8483 15.2714 12.595 18.6367 14.3059 22.0207C14.6335 22.6688 14.9669 23.3142 15.2962 23.9615C15.5053 24.3702 15.5249 24.797 15.3737 25.2238Z" fill="#115082"/>
<path d="M23.8651 3.66815C23.5709 4.70488 23.132 5.68776 22.7352 6.68623C21.9828 8.57905 21.2275 10.4707 20.4691 12.3613C19.9967 13.5335 19.5119 14.7009 19.0243 15.8669C18.7102 16.6179 18.1165 16.9988 17.3244 17.0972C16.5707 17.191 15.5494 16.695 15.2566 15.7084C15.0768 15.1031 15.1327 14.5243 15.3684 13.9396C16.0595 12.2256 16.7321 10.5038 17.411 8.78547C18.2645 6.62813 19.1179 4.47087 19.9712 2.31371C20.0969 1.99629 20.2498 1.69445 20.4674 1.42861C20.7468 1.08851 21.0799 0.854698 21.5403 0.815304C22.0078 0.775059 22.464 0.786963 22.9105 0.943407C23.6379 1.19848 24.0679 1.8132 24.0574 2.62008C24.0679 2.95905 23.9658 3.31417 23.8651 3.66815Z" fill="#115082"/>
<path d="M97.9832 14.3994C97.8229 14.7066 97.6115 14.9662 97.3174 15.1541C97.1148 15.2828 96.8964 15.3598 96.6501 15.3525C94.7798 15.306 92.9091 15.37 91.0388 15.346C90.4343 15.3383 89.83 15.304 89.2258 15.3063C88.7826 15.308 88.4677 15.1045 88.2277 14.7624C87.8414 14.212 87.7276 13.5922 87.7926 12.9321C87.8476 12.3738 88.1163 11.9359 88.548 11.5904C88.7214 11.4516 88.9307 11.4419 89.1389 11.4402C89.9231 11.4342 90.707 11.43 91.4907 11.4278C91.9917 11.4261 92.4924 11.4278 92.9943 11.4278V11.4397C94.2601 11.4397 95.5259 11.4436 96.7917 11.4368C97.1488 11.4348 97.4354 11.5712 97.6694 11.8226C98.0036 12.1816 98.1735 12.6104 98.1934 13.103C98.2101 13.5514 98.1968 13.9898 97.9832 14.3994Z" fill="#115082"/>
<path d="M43.3425 13.3748C43.271 14.0613 43.0001 14.6445 42.3496 14.9846C41.9153 15.2114 41.4433 15.295 40.9635 15.3548C40.3048 15.4367 39.6433 15.3959 39.1965 15.4024C38.3221 15.4086 37.6609 15.4239 37.0019 15.3542C36.5213 15.3032 36.0484 15.2221 35.6118 14.9971C35.4445 14.9094 35.2903 14.799 35.1534 14.6689C34.9699 14.5039 34.8468 14.2823 34.8036 14.0394C34.7074 13.512 34.6856 12.9908 34.8705 12.4767C35.0294 12.0351 35.3244 11.7273 35.7568 11.5414C36.2595 11.3252 36.7891 11.2487 37.3287 11.2223C38.1131 11.184 38.8949 11.2745 39.6784 11.279C40.1411 11.2821 40.6033 11.266 41.0657 11.2526C41.8274 11.2308 42.4274 11.5752 42.9003 12.1547C43.1896 12.5084 43.3908 12.9103 43.3425 13.3748Z" fill="#115082"/>
</g>
<defs>
<clipPath id="clip0_140_281">
<rect width="130" height="27" fill="white"/>
</clipPath>
</defs>
</svg>
