<svg width="38" height="38" viewBox="0 0 38 38" fill="none" xmlns="http://www.w3.org/2000/svg">
<g clip-path="url(#clip0_133_84)">
<path d="M33.3766 13.585V24.415C33.3741 25.2895 33.1435 26.1482 32.7076 26.9063C32.2716 27.6644 31.6454 28.2956 30.8908 28.7375L21.4858 34.1683C20.7269 34.6041 19.8671 34.8334 18.992 34.8334C18.1169 34.8334 17.2571 34.6041 16.4983 34.1683L7.09326 28.7375C6.33607 28.2985 5.70774 27.6679 5.2714 26.9092C4.83505 26.1505 4.60606 25.2902 4.60743 24.415V13.585C4.60988 12.7105 4.84048 11.8518 5.27644 11.0937C5.71241 10.3356 6.33864 9.70442 7.09326 9.26249L16.4983 3.83166C17.2571 3.39592 18.1169 3.16663 18.992 3.16663C19.8671 3.16663 20.7269 3.39592 21.4858 3.83166L30.8908 9.26249C31.6467 9.70297 32.2739 10.3338 32.7101 11.0923C33.1462 11.8507 33.376 12.7101 33.3766 13.585V13.585Z" stroke="white" stroke-width="1.5" stroke-linecap="round" stroke-linejoin="round"/>
<path d="M18.4678 26.9309V26.9472" stroke="white" stroke-width="1.5" stroke-linecap="round" stroke-linejoin="round"/>
<path d="M18.4679 21.3893C18.4388 20.8753 18.5774 20.3657 18.863 19.9374C19.1486 19.509 19.5656 19.185 20.0513 19.0143C20.6464 18.7867 21.1806 18.424 21.6118 17.9549C22.0429 17.4858 22.3593 16.923 22.536 16.3109C22.7127 15.6987 22.7449 15.0539 22.6301 14.4271C22.5152 13.8004 22.2565 13.2089 21.8742 12.6992C21.4919 12.1894 20.9965 11.7754 20.427 11.4897C19.8575 11.2039 19.2294 11.0543 18.5923 11.0525C17.9551 11.0507 17.3262 11.1969 16.7552 11.4795C16.1841 11.762 15.6864 12.1733 15.3013 12.6809" stroke="white" stroke-width="1.5" stroke-linecap="round" stroke-linejoin="round"/>
</g>
<defs>
<clipPath id="clip0_133_84">
<rect width="38" height="38" fill="white"/>
</clipPath>
</defs>
</svg>
