<svg width="38" height="38" viewBox="0 0 38 38" fill="none" xmlns="http://www.w3.org/2000/svg">
<g clip-path="url(#clip0_133_59)">
<path d="M19.839 32.3317H9.83234C4.829 32.3317 3.1665 29.0067 3.1665 25.6658V12.3342C3.1665 7.33083 4.829 5.66833 9.83234 5.66833H19.839C24.8423 5.66833 26.5048 7.33083 26.5048 12.3342V25.6658C26.5048 30.6692 24.8265 32.3317 19.839 32.3317Z" stroke="white" stroke-width="1.5" stroke-linecap="round" stroke-linejoin="round"/>
<path d="M30.9065 27.075L26.5049 23.9875V13.9966L30.9065 10.9091C33.0599 9.40496 34.8332 10.3233 34.8332 12.9675V25.0325C34.8332 27.6766 33.0599 28.595 30.9065 27.075Z" stroke="white" stroke-width="1.5" stroke-linecap="round" stroke-linejoin="round"/>
<path d="M20.5835 15.0416C20.5835 15.5114 20.4442 15.9705 20.1832 16.3611C19.9223 16.7517 19.5513 17.0561 19.1174 17.2358C18.6834 17.4156 18.2059 17.4626 17.7452 17.371C17.2845 17.2794 16.8613 17.0532 16.5291 16.721C16.197 16.3889 15.9708 15.9657 15.8791 15.505C15.7875 15.0443 15.8345 14.5667 16.0143 14.1328C16.194 13.6988 16.4985 13.3279 16.889 13.0669C17.2796 12.8059 17.7388 12.6666 18.2085 12.6666C18.8384 12.6666 19.4425 12.9168 19.8879 13.3622C20.3333 13.8076 20.5835 14.4117 20.5835 15.0416Z" stroke="white" stroke-width="1.5" stroke-linecap="round" stroke-linejoin="round"/>
</g>
<defs>
<clipPath id="clip0_133_59">
<rect width="38" height="38" fill="white"/>
</clipPath>
</defs>
</svg>
