<svg width="38" height="38" viewBox="0 0 38 38" fill="none" xmlns="http://www.w3.org/2000/svg">
<g clip-path="url(#clip0_133_67)">
<g opacity="0.5" clip-path="url(#clip1_133_67)">
<path d="M9 3H29V11H9V3Z" fill="#114F7E"/>
<path d="M26 3V11H35C34.1862 5.95413 30.9468 3.01835 26 3Z" fill="#114F7E"/>
<path d="M3 12V25.5495C3 31.4703 6.472 35 12.296 35H25.704C31.528 35 35 31.4703 35 25.5495V12H3ZM22.904 25.5332L19.576 27.4851C18.9626 27.8662 18.2625 28.0792 17.544 28.1033C17.0848 28.108 16.6324 27.9902 16.232 27.7617C15.7425 27.4279 15.3505 26.9663 15.0972 26.4254C14.8438 25.8844 14.7384 25.2841 14.792 24.6874V20.7836C14.7384 20.1869 14.8438 19.5866 15.0972 19.0456C15.3505 18.5047 15.7425 18.0431 16.232 17.7093C16.7614 17.4416 17.3526 17.3259 17.9418 17.3747C18.5311 17.4234 19.0961 17.6347 19.576 17.9859L22.904 19.9378C23.4412 20.189 23.9017 20.5831 24.2369 21.0784C24.572 21.5737 24.7693 22.1519 24.808 22.7518C24.7629 23.3457 24.5627 23.9167 24.228 24.4057C23.8933 24.8947 23.4362 25.2839 22.904 25.5332Z" fill="#114F7E"/>
<path d="M12 3C7.05319 3.01835 3.81383 5.95413 3 11H12V3Z" fill="#114F7E"/>
</g>
<path d="M34.8332 23.75V14.25C34.8332 6.33329 31.6665 3.16663 23.7498 3.16663H14.2498C6.33317 3.16663 3.1665 6.33329 3.1665 14.25V23.75C3.1665 31.6666 6.33317 34.8333 14.2498 34.8333H23.7498C31.6665 34.8333 34.8332 31.6666 34.8332 23.75Z" stroke="#1680D3" stroke-width="1.5" stroke-linecap="round" stroke-linejoin="round"/>
<path d="M3.99023 11.2574H34.0102" stroke="#1680D3" stroke-width="1.5" stroke-linecap="round" stroke-linejoin="round"/>
<path d="M13.4902 3.34082V11.0358" stroke="#1680D3" stroke-width="1.5" stroke-linecap="round" stroke-linejoin="round"/>
<path d="M24.5098 3.34082V10.3233" stroke="#1680D3" stroke-width="1.5" stroke-linecap="round" stroke-linejoin="round"/>
<path d="M15.4375 22.8792V20.9792C15.4375 18.5409 17.1633 17.5434 19.2692 18.7625L20.9158 19.7125L22.5625 20.6625C24.6683 21.8817 24.6683 23.8767 22.5625 25.0959L20.9158 26.0459L19.2692 26.9959C17.1633 28.2166 15.4375 27.2175 15.4375 24.7792V22.8792V22.8792Z" stroke="#1680D3" stroke-width="1.5" stroke-linecap="round" stroke-linejoin="round"/>
</g>
<defs>
<clipPath id="clip0_133_67">
<rect width="38" height="38" fill="white"/>
</clipPath>
<clipPath id="clip1_133_67">
<rect width="38" height="38" fill="white"/>
</clipPath>
</defs>
</svg>
