<svg width="38" height="38" viewBox="0 0 38 38" fill="none" xmlns="http://www.w3.org/2000/svg">
<g clip-path="url(#clip0_4_37)">
<path d="M19 36.1158C18.4392 36.103 17.8892 35.9588 17.3942 35.6949C16.8992 35.4309 16.4731 35.0544 16.15 34.5958L13.775 31.4292C13.6837 31.3518 13.5751 31.2975 13.4584 31.2708H12.6667C6.06419 31.2708 1.97919 29.4817 1.97919 20.5833V12.6667C1.97919 5.66833 5.66835 1.97916 12.6667 1.97916H25.3334C32.3317 1.97916 36.0209 5.66833 36.0209 12.6667V20.5833C36.0209 27.5817 32.3317 31.2708 25.3334 31.2708H24.5417C24.4805 31.2721 24.4203 31.287 24.3655 31.3144C24.3108 31.3417 24.2628 31.381 24.225 31.4292L21.85 34.5958C21.527 35.0544 21.1008 35.4309 20.6058 35.6949C20.1109 35.9588 19.5609 36.103 19 36.1158ZM12.6667 4.35416C6.99835 4.35416 4.35419 6.99833 4.35419 12.6667V20.5833C4.35419 27.74 6.80835 28.8958 12.6667 28.8958H13.4584C13.8858 28.9101 14.3052 29.0165 14.6878 29.2078C15.0704 29.3991 15.4071 29.6707 15.675 30.0042L18.05 33.1708C18.1467 33.3371 18.2853 33.4751 18.452 33.571C18.6187 33.667 18.8077 33.7175 19 33.7175C19.1924 33.7175 19.3813 33.667 19.548 33.571C19.7148 33.4751 19.8534 33.3371 19.95 33.1708L22.325 30.0042C22.5833 29.6602 22.918 29.381 23.3027 29.1887C23.6874 28.9963 24.1116 28.8961 24.5417 28.8958H25.3334C31.0017 28.8958 33.6459 26.2517 33.6459 20.5833V12.6667C33.6459 6.99833 31.0017 4.35416 25.3334 4.35416H12.6667Z" fill="white"/>
<path d="M19 19C18.6869 19 18.3807 18.9071 18.1204 18.7332C17.86 18.5592 17.6571 18.3119 17.5372 18.0226C17.4174 17.7333 17.386 17.4149 17.4471 17.1078C17.5082 16.8006 17.659 16.5185 17.8804 16.2971C18.1019 16.0757 18.384 15.9249 18.6911 15.8638C18.9983 15.8027 19.3166 15.834 19.6059 15.9539C19.8953 16.0737 20.1425 16.2766 20.3165 16.537C20.4905 16.7974 20.5834 17.1035 20.5834 17.4167C20.5834 17.8366 20.4165 18.2393 20.1196 18.5363C19.8227 18.8332 19.4199 19 19 19Z" fill="white"/>
<path d="M25.3333 19C25.0202 19 24.7141 18.9071 24.4537 18.7332C24.1933 18.5592 23.9904 18.3119 23.8705 18.0226C23.7507 17.7333 23.7193 17.4149 23.7804 17.1078C23.8415 16.8006 23.9923 16.5185 24.2137 16.2971C24.4352 16.0757 24.7173 15.9249 25.0244 15.8638C25.3316 15.8027 25.6499 15.834 25.9392 15.9539C26.2286 16.0737 26.4758 16.2766 26.6498 16.537C26.8238 16.7974 26.9167 17.1035 26.9167 17.4167C26.9167 17.8366 26.7499 18.2393 26.4529 18.5363C26.156 18.8332 25.7533 19 25.3333 19Z" fill="white"/>
<path d="M12.6666 19C12.3535 19 12.0474 18.9071 11.787 18.7332C11.5266 18.5592 11.3237 18.3119 11.2038 18.0226C11.084 17.7333 11.0526 17.4149 11.1137 17.1078C11.1748 16.8006 11.3256 16.5185 11.5471 16.2971C11.7685 16.0757 12.0506 15.9249 12.3578 15.8638C12.6649 15.8027 12.9832 15.834 13.2726 15.9539C13.5619 16.0737 13.8092 16.2766 13.9831 16.537C14.1571 16.7974 14.25 17.1035 14.25 17.4167C14.25 17.8366 14.0832 18.2393 13.7862 18.5363C13.4893 18.8332 13.0866 19 12.6666 19Z" fill="white"/>
</g>
<defs>
<clipPath id="clip0_4_37">
<rect width="38" height="38" fill="white"/>
</clipPath>
</defs>
</svg>
