<svg width="38" height="38" viewBox="0 0 38 38" fill="none" xmlns="http://www.w3.org/2000/svg">
<g clip-path="url(#clip0_4_15)">
<path d="M4.75 14.4242V23.56C4.75 26.9167 4.75 26.9167 7.91667 29.0542L16.625 34.0892C17.3604 34.4645 18.1743 34.6601 19 34.6601C19.8257 34.6601 20.6396 34.4645 21.375 34.0892L30.0833 29.0542C33.25 26.9167 33.25 26.9167 33.25 23.5758V14.4242C33.25 11.0833 33.25 11.0833 30.0833 8.94584L21.375 3.91084C20.6396 3.53554 19.8257 3.33987 19 3.33987C18.1743 3.33987 17.3604 3.53554 16.625 3.91084L7.91667 8.94584C4.75 11.0833 4.75 11.0833 4.75 14.4242Z" stroke="white" stroke-width="1.5" stroke-linecap="round" stroke-linejoin="round"/>
<path d="M23.75 19C23.75 19.9395 23.4714 20.8578 22.9495 21.639C22.4275 22.4201 21.6857 23.0289 20.8177 23.3884C19.9498 23.7479 18.9947 23.842 18.0733 23.6587C17.1519 23.4754 16.3055 23.0231 15.6412 22.3588C14.9769 21.6945 14.5246 20.8481 14.3413 19.9267C14.158 19.0053 14.2521 18.0502 14.6116 17.1823C14.9711 16.3143 15.5799 15.5725 16.361 15.0505C17.1422 14.5286 18.0605 14.25 19 14.25C20.2598 14.25 21.468 14.7504 22.3588 15.6412C23.2496 16.532 23.75 17.7402 23.75 19Z" stroke="white" stroke-width="1.5" stroke-linecap="round" stroke-linejoin="round"/>
</g>
<defs>
<clipPath id="clip0_4_15">
<rect width="38" height="38" fill="white"/>
</clipPath>
</defs>
</svg>
