<svg width="38" height="38" viewBox="0 0 38 38" fill="none" xmlns="http://www.w3.org/2000/svg">
<g clip-path="url(#clip0_4_46)">
<path d="M19 29.6875C18.6857 29.6854 18.3849 29.5596 18.1626 29.3374C17.9404 29.1151 17.8146 28.8143 17.8125 28.5V23.75C17.8146 23.4357 17.9404 23.1349 18.1626 22.9126C18.3849 22.6904 18.6857 22.5646 19 22.5625C19.3143 22.5646 19.6151 22.6904 19.8374 22.9126C20.0596 23.1349 20.1854 23.4357 20.1875 23.75V28.5C20.1854 28.8143 20.0596 29.1151 19.8374 29.3374C19.6151 29.5596 19.3143 29.6854 19 29.6875Z" fill="white"/>
<path d="M27.8667 35.72H10.1334C8.70673 35.696 7.33208 35.1804 6.24164 34.2601C5.1512 33.3399 4.41181 32.0715 4.14838 30.6692L2.04254 18.05C1.90848 16.9887 2.03768 15.9107 2.41873 14.9111C2.79979 13.9115 3.42099 13.0211 4.22754 12.3183L15.2 3.53084C16.2939 2.70128 17.6298 2.25358 19.0027 2.25644C20.3756 2.2593 21.7096 2.71256 22.8 3.54668L33.7725 12.3183C34.5701 13.0281 35.1851 13.9196 35.5654 14.9172C35.9457 15.9148 36.0802 16.9894 35.9575 18.05L33.8517 30.6533C33.5744 32.0504 32.8315 33.3121 31.7444 34.2323C30.6574 35.1526 29.2904 35.6771 27.8667 35.72ZM18.9842 4.63918C18.1576 4.62574 17.3499 4.88753 16.6884 5.38334L5.71588 14.1867C5.24321 14.6274 4.87763 15.1704 4.64711 15.7742C4.41659 16.3779 4.32723 17.0264 4.38588 17.67L6.49171 30.2733C6.6709 31.1173 7.12622 31.8775 7.78572 32.4338C8.44522 32.99 9.27129 33.3107 10.1334 33.345H27.8667C28.7311 33.3104 29.5592 32.9877 30.2191 32.4282C30.879 31.8687 31.3328 31.1046 31.5084 30.2575L33.6142 17.6542C33.6655 17.0112 33.5728 16.3649 33.3427 15.7623C33.1126 15.1597 32.751 14.616 32.2842 14.1708L21.3117 5.39918C20.6422 4.89362 19.823 4.62613 18.9842 4.63918Z" fill="white"/>
</g>
<defs>
<clipPath id="clip0_4_46">
<rect width="38" height="38" fill="white"/>
</clipPath>
</defs>
</svg>
