<svg width="38" height="38" viewBox="0 0 38 38" fill="none" xmlns="http://www.w3.org/2000/svg">
<g opacity="0.35" clip-path="url(#clip0_4_88)">
<path d="M19 3.16666C17.0281 3.17362 15.1379 3.95541 13.7372 5.34339C12.3365 6.73138 11.5376 8.61434 11.5126 10.5861C11.4877 12.5579 12.2388 14.4604 13.604 15.8834C14.9691 17.3063 16.8389 18.1357 18.81 18.1925C18.9256 18.1766 19.0428 18.1766 19.1583 18.1925H19.2692C21.2483 18.1372 23.1257 17.303 24.4932 15.8713C25.8608 14.4395 26.608 12.5259 26.5725 10.5463C26.5371 8.56674 25.7218 6.68113 24.3038 5.29929C22.8859 3.91745 20.9799 3.15105 19 3.16666Z" fill="#1680D3"/>
<path d="M27.0433 22.4042C24.6123 20.9585 21.8363 20.1954 19.0079 20.1954C16.1795 20.1954 13.4035 20.9585 10.9725 22.4042C10.0659 22.9272 9.30522 23.6696 8.76023 24.5632C8.21523 25.4567 7.9034 26.4729 7.85333 27.5183C7.90222 28.5579 8.21214 29.5685 8.75451 30.4568C9.29688 31.345 10.0542 32.0824 10.9567 32.6008C13.364 34.1104 16.159 34.8861 19 34.8333C21.841 34.8861 24.636 34.1104 27.0433 32.6008C27.9472 32.0761 28.7049 31.3329 29.247 30.4394C29.7892 29.5459 30.0985 28.5307 30.1467 27.4867C30.0945 26.4478 29.7832 25.4386 29.2412 24.5509C28.6991 23.6631 27.9436 22.9252 27.0433 22.4042Z" fill="#1680D3"/>
</g>
<defs>
<clipPath id="clip0_4_88">
<rect width="38" height="38" fill="white"/>
</clipPath>
</defs>
</svg>
