<svg width="38" height="38" viewBox="0 0 38 38" fill="none" xmlns="http://www.w3.org/2000/svg">
<g clip-path="url(#clip0_4_21)">
<path d="M14.2025 34.8333H23.7025C31.6191 34.8333 34.7858 31.6667 34.7858 23.75V14.25C34.7858 6.33334 31.6191 3.16667 23.7025 3.16667H14.2025C6.28581 3.16667 3.11914 6.33334 3.11914 14.25V23.75C3.11914 31.6667 6.28581 34.8333 14.2025 34.8333Z" stroke="white" stroke-width="1.5" stroke-linecap="round" stroke-linejoin="round"/>
<path d="M3.11914 20.1083L12.6191 20.0767C13.2494 20.1088 13.8588 20.3133 14.3809 20.6679C14.9029 21.0224 15.3177 21.5135 15.58 22.0875L17.385 26.6475C17.7966 27.6766 18.4458 27.6766 18.8575 26.6475L22.4833 17.4483C22.8316 16.5617 23.4808 16.53 23.9241 17.3692L25.5708 20.4883C25.864 20.9781 26.2728 21.3887 26.7613 21.684C27.2499 21.9794 27.8033 22.1505 28.3733 22.1825H34.8016" stroke="white" stroke-width="1.5" stroke-linecap="round" stroke-linejoin="round"/>
</g>
<defs>
<clipPath id="clip0_4_21">
<rect width="38" height="38" fill="white"/>
</clipPath>
</defs>
</svg>
