<svg width="38" height="38" viewBox="0 0 38 38" fill="none" xmlns="http://www.w3.org/2000/svg">
<g clip-path="url(#clip0_4_27)">
<path d="M26.2992 31.6667C28.4219 31.6867 30.4731 30.9007 32.0388 29.4673C33.6044 28.0338 34.5679 26.0597 34.7347 23.9435C34.9016 21.8273 34.2592 19.7267 32.9375 18.0656C31.6157 16.4046 29.713 15.3069 27.6134 14.9942C25.175 0.205828 3.85227 5.81083 8.89836 19.8835" stroke="white" stroke-width="1.5" stroke-linecap="round" stroke-linejoin="round"/>
<path d="M11.5251 20.5358C10.6882 20.1074 9.75928 19.89 8.81918 19.9025C7.31952 19.9945 5.91144 20.6551 4.88208 21.7496C3.85272 22.8441 3.2796 24.29 3.2796 25.7925C3.2796 27.295 3.85272 28.7409 4.88208 29.8354C5.91144 30.9298 7.31952 31.5904 8.81918 31.6825" stroke="white" stroke-width="1.5" stroke-linecap="round" stroke-linejoin="round"/>
<path d="M25.0483 15.6592C25.8645 15.2479 26.7629 15.026 27.6767 15.01" stroke="white" stroke-width="1.5" stroke-linecap="round" stroke-linejoin="round"/>
<path d="M19 36.4167V26.9167L15.8333 30.0833" stroke="white" stroke-width="1.5" stroke-linecap="round" stroke-linejoin="round"/>
<path d="M19 26.9167L22.1667 30.0833" stroke="white" stroke-width="1.5" stroke-linecap="round" stroke-linejoin="round"/>
</g>
<defs>
<clipPath id="clip0_4_27">
<rect width="38" height="38" fill="white"/>
</clipPath>
</defs>
</svg>
